<svg width="130" height="52" viewBox="0 0 130 52" fill="none" xmlns="http://www.w3.org/2000/svg">
<path d="M62.2786 6.46807C62.2786 5.87199 62.4734 5.37908 62.8746 4.98934C63.2758 4.59959 63.8261 4.40472 64.5139 4.40472C65.1902 4.40472 65.7404 4.59959 66.1416 4.98934C66.5428 5.37908 66.7491 5.87199 66.7491 6.46807C66.7491 7.07561 66.5428 7.56852 66.1301 7.95826C65.7175 8.348 65.1787 8.54287 64.5024 8.54287C63.8261 8.54287 63.2873 8.348 62.8746 7.95826C62.4849 7.57998 62.2786 7.07561 62.2786 6.46807ZM66.5199 25.2789H62.5193V10.3311H66.5199V25.2789Z" fill="white"/>
<path d="M68.801 17.7019C68.801 15.4093 69.3513 13.5637 70.4402 12.1652C71.5292 10.7667 72.9965 10.0675 74.8535 10.0675C76.4927 10.0675 77.7651 10.6292 78.6821 11.7526L78.8426 10.3426H82.4649V24.786C82.4649 26.0928 82.1669 27.2276 81.5708 28.202C80.9748 29.1649 80.138 29.91 79.0604 30.4144C77.9829 30.9187 76.722 31.1709 75.2776 31.1709C74.1772 31.1709 73.1111 30.9531 72.0794 30.5175C71.0363 30.0819 70.2568 29.5203 69.7181 28.821L71.4834 26.3908C72.4807 27.5028 73.6843 28.0645 75.1057 28.0645C76.1603 28.0645 76.9856 27.7779 77.5817 27.2162C78.1663 26.6545 78.4643 25.8521 78.4643 24.809V24.0065C77.5473 25.0497 76.3322 25.5655 74.8306 25.5655C73.0309 25.5655 71.5865 24.8663 70.4746 23.4563C69.3627 22.0578 68.8125 20.1894 68.8125 17.8738V17.7019H68.801ZM72.7902 17.9885C72.7902 19.3411 73.0653 20.4071 73.604 21.1752C74.1428 21.9432 74.8879 22.3329 75.8393 22.3329C77.0544 22.3329 77.9256 21.8744 78.4529 20.9688V14.6756C77.9141 13.7586 77.0544 13.3115 75.8737 13.3115C74.9108 13.3115 74.1657 13.7013 73.6155 14.4922C73.0653 15.2603 72.7902 16.4409 72.7902 17.9885Z" fill="white"/>
<path d="M88.7697 10.3312L88.8957 12.0621C89.9618 10.7324 91.3947 10.0561 93.1944 10.0561C94.7763 10.0561 95.957 10.5261 96.725 11.4546C97.493 12.3831 97.8942 13.7701 97.9171 15.6271V25.279H93.928V15.7188C93.928 14.8706 93.7446 14.263 93.3778 13.8733C93.011 13.495 92.392 13.3001 91.5437 13.3001C90.4203 13.3001 89.5835 13.7816 89.0218 14.733V25.2675H85.0327V10.3312H88.7697Z" fill="white"/>
<path d="M100.485 6.46807C100.485 5.87199 100.68 5.37908 101.081 4.98934C101.482 4.59959 102.032 4.40472 102.72 4.40472C103.396 4.40472 103.947 4.59959 104.348 4.98934C104.749 5.37908 104.955 5.87199 104.955 6.46807C104.955 7.07561 104.749 7.56852 104.336 7.95826C103.924 8.348 103.385 8.54287 102.709 8.54287C102.032 8.54287 101.494 8.348 101.081 7.95826C100.691 7.57998 100.485 7.07561 100.485 6.46807ZM104.726 25.2789H100.726V10.3311H104.726V25.2789Z" fill="white"/>
<path d="M112.372 6.66296V10.3311H114.928V13.2542H112.372V20.7166C112.372 21.2668 112.475 21.6681 112.693 21.9088C112.899 22.1495 113.312 22.2641 113.908 22.2641C114.355 22.2641 114.745 22.2297 115.077 22.1724V25.1987C114.298 25.4394 113.484 25.554 112.659 25.554C109.862 25.554 108.429 24.1441 108.383 21.3127V13.2657H106.205V10.3426H108.383V6.67443H112.372V6.66296Z" fill="white"/>
<path d="M123.595 25.554C121.405 25.554 119.617 24.8777 118.241 23.5365C116.866 22.1954 116.178 20.4071 116.178 18.1604V17.7706C116.178 16.269 116.465 14.9278 117.049 13.7471C117.634 12.5664 118.448 11.6494 119.514 11.0075C120.58 10.3655 121.795 10.0446 123.147 10.0446C125.188 10.0446 126.804 10.6865 127.973 11.9818C129.143 13.2657 129.739 15.0998 129.739 17.4611V19.0889H120.224C120.351 20.0632 120.74 20.8427 121.394 21.4388C122.047 22.0234 122.861 22.3214 123.858 22.3214C125.394 22.3214 126.598 21.7598 127.458 20.6478L129.418 22.8488C128.822 23.697 128.008 24.3619 126.988 24.8319C125.979 25.3133 124.844 25.554 123.595 25.554ZM123.147 13.2771C122.357 13.2771 121.715 13.5408 121.222 14.0795C120.729 14.6183 120.419 15.3863 120.27 16.3836H125.818V16.0626C125.795 15.18 125.566 14.4922 125.096 13.9993C124.638 13.5179 123.984 13.2771 123.147 13.2771Z" fill="white"/>
<path opacity="0.5" d="M52.0157 0.35129L39.286 47.8829C39.2212 48.0986 38.9623 48.1634 38.8113 48.0123L30.2888 39.4899L36.6753 15.6701C36.74 15.4544 36.5458 15.2602 36.3301 15.3249L12.5103 21.7114L4.03104 13.2321C3.88001 13.081 3.94474 12.8221 4.1605 12.7574L51.6705 0.00607603C51.8863 -0.0370757 52.0804 0.157107 52.0157 0.35129Z" fill="#00B37E"/>
<path opacity="0.5" d="M30.2885 39.49L27.009 51.7882C26.9442 52.004 26.6853 52.0687 26.5343 51.9177L0.0823113 25.4873C-0.0687196 25.3362 -0.00399244 25.0773 0.211766 25.0126L12.51 21.7115L30.2885 39.49Z" fill="#00B37E"/>
<path d="M36.6752 15.6699L30.2887 39.4897L12.5103 21.7112L36.33 15.3247C36.5457 15.26 36.7399 15.4542 36.6752 15.6699Z" fill="#00B37E"/>
<path fill-rule="evenodd" clip-rule="evenodd" d="M65.6414 36.5C65.6414 36.2239 65.8621 36 66.1345 36H68.8655C69.1379 36 69.3586 36.2239 69.3586 36.5C69.3586 36.7761 69.1379 37 68.8655 37H66.1345C65.8621 37 65.6414 36.7761 65.6414 36.5ZM67.5 38.8462C65.0071 38.8462 62.9862 40.8953 62.9862 43.4231C62.9862 45.9508 65.0071 48 67.5 48C69.9929 48 72.0138 45.9508 72.0138 43.4231C72.0138 40.8953 69.9929 38.8462 67.5 38.8462ZM62 43.4231C62 40.343 64.4624 37.8462 67.5 37.8462C70.5376 37.8462 73 40.343 73 43.4231C73 46.5031 70.5376 49 67.5 49C64.4624 49 62 46.5031 62 43.4231ZM70.1018 40.7847C70.2943 40.9799 70.2943 41.2965 70.1018 41.4918L67.8487 43.7764C67.6561 43.9717 67.3439 43.9717 67.1513 43.7764C66.9588 43.5811 66.9588 43.2645 67.1513 43.0693L69.4044 40.7847C69.597 40.5894 69.9092 40.5894 70.1018 40.7847Z" fill="white"/>
<path d="M80.3406 39.5469V40.6562H75.7703V39.5469H80.3406ZM77.3171 37.4922H78.7625V45.9062C78.7625 46.1927 78.8067 46.4089 78.8953 46.5547C78.9838 46.7005 79.0984 46.7969 79.239 46.8438C79.3796 46.8906 79.5307 46.9141 79.6921 46.9141C79.8119 46.9141 79.9369 46.9036 80.0671 46.8828C80.2026 46.8568 80.3041 46.8359 80.3718 46.8203L80.3796 48C80.2651 48.0365 80.114 48.0703 79.9265 48.1016C79.7442 48.138 79.5229 48.1562 79.2625 48.1562C78.9083 48.1562 78.5828 48.0859 78.2859 47.9453C77.989 47.8047 77.752 47.5703 77.575 47.2422C77.4031 46.9089 77.3171 46.4609 77.3171 45.8984V37.4922ZM83.4462 39.5469V48H81.9931V39.5469H83.4462ZM81.8837 37.3047C81.8837 37.0703 81.954 36.8724 82.0946 36.7109C82.2405 36.5495 82.454 36.4688 82.7353 36.4688C83.0113 36.4688 83.2222 36.5495 83.3681 36.7109C83.5191 36.8724 83.5946 37.0703 83.5946 37.3047C83.5946 37.5286 83.5191 37.7214 83.3681 37.8828C83.2222 38.0391 83.0113 38.1172 82.7353 38.1172C82.454 38.1172 82.2405 38.0391 82.0946 37.8828C81.954 37.7214 81.8837 37.5286 81.8837 37.3047ZM87.044 41.2266V48H85.5909V39.5469H86.9659L87.044 41.2266ZM86.7471 43.4531L86.0753 43.4297C86.0805 42.8516 86.156 42.3177 86.3018 41.8281C86.4477 41.3333 86.6638 40.9036 86.9503 40.5391C87.2367 40.1745 87.5935 39.8932 88.0206 39.6953C88.4477 39.4922 88.9425 39.3906 89.505 39.3906C89.9008 39.3906 90.2654 39.4479 90.5987 39.5625C90.932 39.6719 91.2211 39.8464 91.4659 40.0859C91.7107 40.3255 91.9008 40.6328 92.0362 41.0078C92.1716 41.3828 92.2393 41.8359 92.2393 42.3672V48H90.794V42.4375C90.794 41.9948 90.7185 41.6406 90.5675 41.375C90.4216 41.1094 90.2133 40.9167 89.9425 40.7969C89.6716 40.6719 89.3539 40.6094 88.9893 40.6094C88.5622 40.6094 88.2055 40.6849 87.919 40.8359C87.6326 40.987 87.4034 41.1953 87.2315 41.4609C87.0596 41.7266 86.9346 42.0312 86.8565 42.375C86.7836 42.7135 86.7471 43.0729 86.7471 43.4531ZM92.2237 42.6562L91.255 42.9531C91.2602 42.4896 91.3357 42.0443 91.4815 41.6172C91.6326 41.1901 91.8487 40.8099 92.13 40.4766C92.4164 40.1432 92.768 39.8802 93.1846 39.6875C93.6013 39.4896 94.0779 39.3906 94.6143 39.3906C95.0675 39.3906 95.4685 39.4505 95.8175 39.5703C96.1716 39.6901 96.4685 39.875 96.7081 40.125C96.9529 40.3698 97.1378 40.6849 97.2628 41.0703C97.3878 41.4557 97.4503 41.9141 97.4503 42.4453V48H95.9971V42.4297C95.9971 41.9557 95.9216 41.5885 95.7706 41.3281C95.6247 41.0625 95.4164 40.8776 95.1456 40.7734C94.88 40.6641 94.5622 40.6094 94.1925 40.6094C93.8747 40.6094 93.5935 40.6641 93.3487 40.7734C93.1039 40.8828 92.8982 41.0339 92.7315 41.2266C92.5648 41.4141 92.4372 41.6302 92.3487 41.875C92.2654 42.1198 92.2237 42.3802 92.2237 42.6562ZM102.986 48.1562C102.397 48.1562 101.863 48.0573 101.384 47.8594C100.91 47.6562 100.501 47.3724 100.157 47.0078C99.8189 46.6432 99.5585 46.2109 99.3762 45.7109C99.1939 45.2109 99.1028 44.6641 99.1028 44.0703V43.7422C99.1028 43.0547 99.2043 42.4427 99.4075 41.9062C99.6106 41.3646 99.8866 40.9062 100.236 40.5312C100.585 40.1562 100.98 39.8724 101.423 39.6797C101.866 39.487 102.324 39.3906 102.798 39.3906C103.402 39.3906 103.923 39.4948 104.361 39.7031C104.803 39.9115 105.165 40.2031 105.447 40.5781C105.728 40.9479 105.936 41.3854 106.072 41.8906C106.207 42.3906 106.275 42.9375 106.275 43.5312V44.1797H99.9621V43H104.829V42.8906C104.808 42.5156 104.73 42.151 104.595 41.7969C104.465 41.4427 104.256 41.151 103.97 40.9219C103.683 40.6927 103.293 40.5781 102.798 40.5781C102.47 40.5781 102.168 40.6484 101.892 40.7891C101.616 40.9245 101.379 41.1276 101.181 41.3984C100.983 41.6693 100.829 42 100.72 42.3906C100.611 42.7812 100.556 43.2318 100.556 43.7422V44.0703C100.556 44.4714 100.611 44.849 100.72 45.2031C100.835 45.5521 100.999 45.8594 101.212 46.125C101.431 46.3906 101.694 46.599 102.001 46.75C102.314 46.901 102.668 46.9766 103.064 46.9766C103.574 46.9766 104.006 46.8724 104.361 46.6641C104.715 46.4557 105.025 46.1771 105.29 45.8281L106.165 46.5234C105.983 46.7995 105.751 47.0625 105.47 47.3125C105.189 47.5625 104.842 47.7656 104.431 47.9219C104.025 48.0781 103.543 48.1562 102.986 48.1562ZM109.247 40.875V48H107.802V39.5469H109.208L109.247 40.875ZM111.888 39.5L111.88 40.8438C111.76 40.8177 111.646 40.8021 111.537 40.7969C111.432 40.7865 111.313 40.7812 111.177 40.7812C110.844 40.7812 110.55 40.8333 110.294 40.9375C110.039 41.0417 109.823 41.1875 109.646 41.375C109.469 41.5625 109.328 41.7865 109.224 42.0469C109.125 42.3021 109.06 42.5833 109.029 42.8906L108.622 43.125C108.622 42.6146 108.672 42.1354 108.771 41.6875C108.875 41.2396 109.034 40.8438 109.247 40.5C109.461 40.151 109.732 39.8802 110.06 39.6875C110.393 39.4896 110.789 39.3906 111.247 39.3906C111.352 39.3906 111.471 39.4036 111.607 39.4297C111.742 39.4505 111.836 39.474 111.888 39.5Z" fill="white"/>
</svg>
